<?xml version="1.0" standalone="no"?><svg xmlns="http://www.w3.org/2000/svg" viewBox="0 0 1440 320"><path fill="#273036" fill-opacity="1" d="M0,256L20,240C40,224,80,192,120,149.3C160,107,200,53,240,48C280,43,320,85,360,122.7C400,160,440,192,480,176C520,160,560,96,600,74.7C640,53,680,75,720,117.3C760,160,800,224,840,234.7C880,245,920,203,960,197.3C1000,192,1040,224,1080,218.7C1120,213,1160,171,1200,133.3C1240,96,1280,64,1320,64C1360,64,1400,96,1420,112L1440,128L1440,0L1420,0C1400,0,1360,0,1320,0C1280,0,1240,0,1200,0C1160,0,1120,0,1080,0C1040,0,1000,0,960,0C920,0,880,0,840,0C800,0,760,0,720,0C680,0,640,0,600,0C560,0,520,0,480,0C440,0,400,0,360,0C320,0,280,0,240,0C200,0,160,0,120,0C80,0,40,0,20,0L0,0Z"></path></svg>